<svg xmlns="http://www.w3.org/2000/svg" viewBox="0 0 328.18 220.92"><defs><style>.cls-1{fill:#fff;}</style></defs><title>logo-wt-sq</title><g id="レイヤー_2" data-name="レイヤー 2"><g id="ロゴ"><path class="cls-1" d="M77.79,70.88,69.88,84.57a2.45,2.45,0,0,1-2.12,1.22H52a2.44,2.44,0,0,1-2.12-3.67l7.9-13.69a2.46,2.46,0,0,1,2.12-1.23H75.66A2.46,2.46,0,0,1,77.79,70.88Z"/><path class="cls-1" d="M42.59,52.76l7.9,13.69a2.44,2.44,0,0,1,0,2.45l-7.9,13.69a2.45,2.45,0,0,1-4.25,0L30.44,68.9a2.44,2.44,0,0,1,0-2.45l7.9-13.69A2.46,2.46,0,0,1,42.59,52.76Z"/><path class="cls-1" d="M23,68.43l7.9,13.69a2.45,2.45,0,0,1-2.12,3.67H12.92a2.42,2.42,0,0,1-2.12-1.22L2.89,70.88A2.46,2.46,0,0,1,5,67.2h15.8A2.46,2.46,0,0,1,23,68.43Z"/><path class="cls-1" d="M46.19,165.35H34.74A14.78,14.78,0,0,1,22,158L2,123.37a14.74,14.74,0,0,1,0-14.76L7.7,98.69a14.76,14.76,0,0,1,12.79-7.38h40a14.75,14.75,0,0,1,12.78,7.38L79,108.61a14.74,14.74,0,0,1,0,14.76L59,158A14.78,14.78,0,0,1,46.19,165.35Z"/><path class="cls-1" d="M328.18,5H267.74L218.32,47.68C171.73-5.8,106.19-24.61,39.69,46.05,98.43,9.41,148.86,16.83,187.05,74.66L82,165.35H142.4l63.82-55.08a423.87,423.87,0,0,1,19.62,55.08h51a307.56,307.56,0,0,0-35.23-85.62Z"/><path class="cls-1" d="M291.92,186H301l5.59,8.81a1.59,1.59,0,0,0,2.6,0L315,186h9.07L312.7,201.7a1.25,1.25,0,0,0,0,1.48l12.68,17.74h-8.9L309,210a1.6,1.6,0,0,0-2.56,0l-7.73,10.94h-9L303,203.17a1.25,1.25,0,0,0,0-1.48Z"/><path class="cls-1" d="M26.42,197.93V185.67H34v35.25H26.42V206.65a1.45,1.45,0,0,0-1.52-1.37H11.5A1.45,1.45,0,0,0,10,206.65v14.27H2.41V185.67H10v12.26a1.46,1.46,0,0,0,1.52,1.38H24.9A1.46,1.46,0,0,0,26.42,197.93Z"/><path class="cls-1" d="M238.87,193.56a8.22,8.22,0,0,0-6.3-2.79c-3.08,0-5.47,1.7-5.47,3.82,0,1.85,1.34,2.83,5.88,4.33,4.26,1.39,6,2.11,7.75,3.45a8.56,8.56,0,0,1,3.44,7.21c0,6.75-5.48,11.34-13.52,11.34a15.73,15.73,0,0,1-13.34-6.54l4.89-4.18a9.18,9.18,0,0,0,8.16,4.59c3.5,0,6-2,6-4.85a4,4,0,0,0-2.09-3.45,32.37,32.37,0,0,0-5.42-2.06c-7-2.27-9.56-4.74-9.56-9.28,0-5.77,5.13-10,12.12-10A18.32,18.32,0,0,1,242.83,189Z"/><path class="cls-1" d="M264.83,220.92V193a1.46,1.46,0,0,0-1.52-1.38h-8.95v-6h28.57v6h-9A1.46,1.46,0,0,0,272.4,193v27.9Z"/><polygon class="cls-1" points="203.16 205.44 203.16 199.47 187.35 199.47 179.38 199.47 179.38 205.44 187.35 205.44 203.16 205.44"/><polygon class="cls-1" points="179.38 214.95 179.38 220.92 203.71 220.92 203.71 214.95 187.35 214.95 179.38 214.95"/><polygon class="cls-1" points="179.38 185.67 179.38 191.64 187.35 191.64 203.71 191.64 203.71 185.67 179.38 185.67"/><path class="cls-1" d="M151.42,205.64l9.07-20h8.22l-16.79,35.25h-4.08l-16.49-35.25h8.28l9,20A1.6,1.6,0,0,0,151.42,205.64Z"/><path class="cls-1" d="M115.76,208a1.41,1.41,0,0,1,.7-2.25,9.93,9.93,0,0,0,2.86-17.24c-2.15-1.63-5.59-2.46-9.9-2.46H94.6v34.92h7.57V192.86a1.45,1.45,0,0,1,1.52-1.37h4.39c4.78,0,7.28,1.78,7.28,5.24s-2.62,5.34-7.4,5.34h-1.22v4.82l10.48,14h9.33Z"/><path class="cls-1" d="M66.92,185.67H61.21L44.37,220.92h8l3.5-7.3,2.44-5.43,4.22-9.27a1.59,1.59,0,0,1,2.82,0l4,9.25,2.39,5.43,3.32,7.3h8.1Z"/></g></g></svg>